<?xml version="1.0" encoding="UTF-8" standalone="no"?>
<!-- Generator: Adobe Illustrator 21.1.0, SVG Export Plug-In . SVG Version: 6.00 Build 0)  -->

<svg
   version="1.1"
   id="Icons"
   x="0px"
   y="0px"
   viewBox="0 0 48 48"
   style="enable-background:new 0 0 48 48;"
   xml:space="preserve"
   sodipodi:docname="favicon.svg"
   inkscape:version="1.2.2 (732a01da63, 2022-12-09)"
   xmlns:inkscape="http://www.inkscape.org/namespaces/inkscape"
   xmlns:sodipodi="http://sodipodi.sourceforge.net/DTD/sodipodi-0.dtd"
   xmlns="http://www.w3.org/2000/svg"
   xmlns:svg="http://www.w3.org/2000/svg"><defs
   id="defs38"><inkscape:path-effect
     effect="bspline"
     id="path-effect336"
     is_visible="true"
     lpeversion="1"
     weight="33.333333"
     steps="2"
     helper_size="0"
     apply_no_weight="true"
     apply_with_weight="true"
     only_selected="false" /></defs><sodipodi:namedview
   id="namedview36"
   pagecolor="#ffffff"
   bordercolor="#000000"
   borderopacity="0.25"
   inkscape:showpageshadow="2"
   inkscape:pageopacity="0.0"
   inkscape:pagecheckerboard="0"
   inkscape:deskcolor="#d1d1d1"
   showgrid="false"
   showguides="true"
   inkscape:lockguides="true"
   inkscape:zoom="8.6354168"
   inkscape:cx="6.0796139"
   inkscape:cy="22.581423"
   inkscape:window-width="1920"
   inkscape:window-height="1009"
   inkscape:window-x="1912"
   inkscape:window-y="-8"
   inkscape:window-maximized="1"
   inkscape:current-layer="layer1"><sodipodi:guide
     position="24.2,32.1"
     orientation="1,0"
     id="guide322"
     inkscape:locked="true" /><sodipodi:guide
     position="36.535585,23.623643"
     orientation="0,-1"
     id="guide324"
     inkscape:locked="true" /><sodipodi:guide
     position="40.762364,18.817853"
     orientation="0,-1"
     id="guide326"
     inkscape:locked="true" /></sodipodi:namedview>
<style
   type="text/css"
   id="style21">
	.st0{opacity:0.15;fill:#45413C;}
	.st1{fill:#FFE500;}
	.st2{fill:#EBCB00;}
	.st3{fill:none;stroke:#45413C;stroke-linecap:round;stroke-linejoin:round;stroke-miterlimit:10;}
	.st4{fill:#FFAA54;}
	.st5{fill:#FF8A14;}
	.st6{fill:#FFB0CA;stroke:#45413C;stroke-linecap:round;stroke-linejoin:round;stroke-miterlimit:10;}
	.st7{fill:#FF87AF;stroke:#45413C;stroke-linecap:round;stroke-linejoin:round;stroke-miterlimit:10;}
	.st8{fill:#FFCC99;}
	.st9{fill:#FFFFFF;}
	.st10{fill:#F0F0F0;}
	.st11{fill:#BF8256;}
	.st12{fill:#915E3A;}
	.st13{fill:#DEA47A;}
	.st14{fill:#F0D5A8;}
	.st15{fill:#DEBB7E;}
	.st16{fill:#F7E5C6;}
	.st17{fill:#FF8A14;stroke:#45413C;stroke-linecap:round;stroke-linejoin:round;stroke-miterlimit:10;}
	.st18{fill:#FFF5E3;}
	.st19{fill:#FFF48C;}
	.st20{fill:#FFFACF;}
	.st21{fill:#FFFCE5;}
	.st22{fill:#FF87AF;}
	.st23{fill:#FFB0CA;}
	.st24{fill:#FFE500;stroke:#45413C;stroke-linecap:round;stroke-linejoin:round;stroke-miterlimit:10;}
	.st25{fill:#9CEB60;stroke:#45413C;stroke-linecap:round;stroke-linejoin:round;stroke-miterlimit:10;}
	.st26{fill:#FFFACF;stroke:#45413C;stroke-linecap:round;stroke-linejoin:round;stroke-miterlimit:10;}
	.st27{fill:#00F5BC;stroke:#45413C;stroke-linecap:round;stroke-linejoin:round;stroke-miterlimit:10;}
	.st28{fill:#BF8256;stroke:#45413C;stroke-linecap:round;stroke-linejoin:round;stroke-miterlimit:10;}
	.st29{fill:#FFE3CF;stroke:#45413C;stroke-linecap:round;stroke-linejoin:round;stroke-miterlimit:10;}
	.st30{fill:#FF6242;}
	.st31{fill:#FF866E;}
	.st32{fill:none;stroke:#E04122;stroke-linecap:round;stroke-linejoin:round;stroke-miterlimit:10;}
	.st33{fill:#FFFEF2;stroke:#45413C;stroke-linecap:round;stroke-linejoin:round;stroke-miterlimit:10;}
	.st34{fill:#FF6242;stroke:#45413C;stroke-linecap:round;stroke-linejoin:round;stroke-miterlimit:10;}
	.st35{fill:#FFA694;}
	.st36{fill:#FFFFFF;stroke:#45413C;stroke-linecap:round;stroke-linejoin:round;stroke-miterlimit:10;}
	.st37{fill:#FFFEF2;}
	.st38{fill:#FF6196;}
	.st39{fill:#B89558;}
	.st40{fill:none;stroke:#915E3A;stroke-linecap:round;stroke-linejoin:round;stroke-miterlimit:10;}
	.st41{fill:#DEBB7E;stroke:#45413C;stroke-linecap:round;stroke-linejoin:round;stroke-miterlimit:10;}
	.st42{fill:#6DD627;stroke:#45413C;stroke-linecap:round;stroke-linejoin:round;stroke-miterlimit:10;}
	.st43{fill:#E5F8FF;}
	.st44{fill:#E8F4FA;}
	.st45{fill:#E8F4FA;stroke:#45413C;stroke-linecap:round;stroke-linejoin:round;stroke-miterlimit:10;}
	.st46{fill:#FFCCDD;}
	.st47{fill:#E5F8FF;stroke:#45413C;stroke-linecap:round;stroke-linejoin:round;stroke-miterlimit:10;}
	.st48{fill:#00B8F0;stroke:#45413C;stroke-linecap:round;stroke-linejoin:round;stroke-miterlimit:10;}
	.st49{fill:#00B8F0;}
	.st50{fill:#4ACFFF;}
	.st51{fill:#E04122;}
	.st52{fill:#E04122;stroke:#45413C;stroke-linecap:round;stroke-linejoin:round;stroke-miterlimit:10;}
	.st53{fill:#87898C;}
	.st54{fill:#BDBEC0;}
	.st55{fill:#656769;}
	.st56{fill:#525252;}
	.st57{fill:#FFF48C;stroke:#45413C;stroke-linecap:round;stroke-linejoin:round;stroke-miterlimit:10;}
	.st58{fill:#6DD627;}
	.st59{fill:#EB6D00;}
	.st60{fill:#46B000;}
	.st61{fill:#80DDFF;}
	.st62{fill:#DAEDF7;}
	.st63{fill:#BF8DF2;stroke:#45413C;stroke-linecap:round;stroke-linejoin:round;stroke-miterlimit:10;}
	.st64{fill:#9F5AE5;stroke:#45413C;stroke-linecap:round;stroke-linejoin:round;stroke-miterlimit:10;}
	.st65{fill:#C8FFA1;}
	.st66{fill:#E4FFD1;}
	.st67{fill:#9CEB60;}
	.st68{fill:#E5FEFF;}
	.st69{fill:#B8ECFF;}
	.st70{fill:#E0E0E0;stroke:#45413C;stroke-linecap:round;stroke-linejoin:round;stroke-miterlimit:10;}
	.st71{fill:#E0E0E0;}
	.st72{fill:none;stroke:#4F4B45;stroke-linejoin:round;stroke-miterlimit:10;}
	.st73{fill:none;stroke:#4F4B45;stroke-linecap:round;stroke-linejoin:round;stroke-miterlimit:10;}
	.st74{fill:#E0366F;stroke:#45413C;stroke-linecap:round;stroke-linejoin:round;stroke-miterlimit:10;}
	.st75{fill:none;stroke:#45413C;stroke-miterlimit:10;}
	.st76{fill:#FF866E;stroke:#45413C;stroke-linecap:round;stroke-linejoin:round;stroke-miterlimit:10;}
	.st77{fill:#45413C;stroke:#45413C;stroke-linecap:round;stroke-linejoin:round;stroke-miterlimit:10;}
	.st78{fill:#9F5AE5;}
	.st79{fill:#803EC2;}
	.st80{fill:#803EC2;stroke:#45413C;stroke-linecap:round;stroke-linejoin:round;stroke-miterlimit:10;}
	.st81{fill:#BF8DF2;}
	.st82{fill:#FFAA54;stroke:#45413C;stroke-linecap:round;stroke-linejoin:round;stroke-miterlimit:10;}
	.st83{fill:none;stroke:#45413C;stroke-linejoin:round;stroke-miterlimit:10;}
	.st84{fill:#FFCCDD;stroke:#45413C;stroke-linecap:round;stroke-linejoin:round;stroke-miterlimit:10;}
	.st85{fill:#FF6196;stroke:#45413C;stroke-linecap:round;stroke-linejoin:round;stroke-miterlimit:10;}
	.st86{fill:#FFE5EE;}
	.st87{fill:#F7E5C6;stroke:#45413C;stroke-linecap:round;stroke-linejoin:round;stroke-miterlimit:10;}
	.st88{fill:#E5FFF9;}
	.st89{fill:none;stroke:#45413C;stroke-width:1.0064;stroke-linecap:round;stroke-linejoin:round;stroke-miterlimit:10;}
	.st90{fill:#4AEFF7;}
	.st91{fill:#A6FBFF;}
	.st92{fill:#E5FEFF;stroke:#45413C;stroke-linecap:round;stroke-linejoin:round;stroke-miterlimit:10;}
	.st93{fill:#46B000;stroke:#45413C;stroke-linecap:round;stroke-linejoin:round;stroke-miterlimit:10;}
	.st94{fill:#FFFFFF;stroke:#45413C;stroke-linejoin:round;stroke-miterlimit:10;}
	.st95{fill:#FFFFFF;stroke:#45413C;stroke-miterlimit:10;}
	.st96{fill:#009FD9;}
	.st97{fill:#00DFEB;}
	.st98{fill:#C0DCEB;stroke:#45413C;stroke-linecap:round;stroke-linejoin:round;stroke-miterlimit:10;}
	.st99{fill:#00DFEB;stroke:#45413C;stroke-linecap:round;stroke-linejoin:round;stroke-miterlimit:10;}
	.st100{fill:#FFE5EE;stroke:#45413C;stroke-linecap:round;stroke-linejoin:round;stroke-miterlimit:10;}
	.st101{fill:#8CA4B8;}
	.st102{fill:#ADC4D9;}
	.st103{fill:#656769;stroke:#45413C;stroke-linecap:round;stroke-linejoin:round;stroke-miterlimit:10;}
	.st104{fill:#F0F0F0;stroke:#45413C;stroke-linecap:round;stroke-linejoin:round;stroke-miterlimit:10;}
	.st105{fill:#C0DCEB;}
	.st106{fill:#45413C;}
	.st107{fill:#FFCABF;}
	.st108{fill:#87898C;stroke:#45413C;stroke-linecap:round;stroke-linejoin:round;stroke-miterlimit:10;}
	.st109{fill:#EBCB00;stroke:#45413C;stroke-linecap:round;stroke-linejoin:round;stroke-miterlimit:10;}
</style>
<g
   id="XMLID_13254_">
	<ellipse
   id="XMLID_13261_"
   class="st0"
   cx="24"
   cy="44.599998"
   rx="18"
   ry="2.4000001"
   style="display:none" />
	<path
   class="st30"
   d="M 28.8,9.5 H 19.1 C 10.1,9.5 2.8,16.2 2.8,25.2 2.8,35.2 11,44 21,44 h 6 c 10,0 18.2,-8.8 18.2,-18.8 0,-9 -7.3,-15.7 -16.4,-15.7 z"
   id="path24"
   style="fill:#ff4b26;fill-opacity:1" />
	<path
   id="XMLID_13260_"
   class="st51"
   d="M 27,38.6 H 21 C 11.9,38.6 4.4,31.4 3.1,22.5 3,23.3 2.9,24.2 2.9,25.1 2.8,35.2 11,44 21,44 h 6 c 10,0 18.2,-8.8 18.2,-18.8 0,-0.9 -0.1,-1.8 -0.2,-2.6 -1.4,8.8 -8.9,16 -18,16 z"
   style="fill:#c3351b;fill-opacity:1" /><g
   inkscape:groupmode="layer"
   id="layer1"
   inkscape:label="Timer"
   style="display:inline"><path
     style="fill:#000000;fill-opacity:1;stroke:#000000;stroke-width:0;stroke-dasharray:none;stroke-opacity:1"
     d="m 24.198229,33.490515 -2.222953,4.661037 h 4.400484 z"
     id="path2667" /><circle
     id="path2910"
     style="fill:#000000;stroke:none"
     cx="10.943305"
     cy="21.770807"
     r="0" /><path
     style="fill:none;fill-opacity:1;stroke:#000000;stroke-width:2;stroke-linecap:round;stroke-dasharray:none;stroke-opacity:1"
     d="m 24.277513,31.323217 0.04896,-6.006643"
     id="path2920" /><path
     style="display:inline;fill:none;stroke:#000000;stroke-width:1.9925;stroke-linecap:butt;stroke-dasharray:none;stroke-opacity:1"
     d="m 3.0268792,28.583942 c 7.0420838,1.362076 14.0830258,2.723932 21.0742668,2.740415 6.991241,0.01648 13.932876,-1.311985 20.873877,-2.640331"
     id="path334"
     inkscape:path-effect="#path-effect336"
     inkscape:original-d="m 3.0268792,28.583942 c 7.0419328,1.362856 14.0828748,2.724711 21.1228238,4.085566 6.942904,-1.32752 13.884539,-2.655988 20.82532,-3.985482" /><path
     style="fill:none;fill-opacity:1;stroke:#000000;stroke-width:2;stroke-linecap:round;stroke-dasharray:none;stroke-opacity:1"
     d="m 41.888841,29.267117 0.04896,-6.006643"
     id="path2922" /><path
     style="fill:none;fill-opacity:1;stroke:#000000;stroke-width:2;stroke-linecap:round;stroke-dasharray:none;stroke-opacity:1"
     d="m 7.3797942,29.267117 0.04896,-6.006643"
     id="path2924" /><path
     style="fill:none;fill-opacity:1;stroke:#000000;stroke-width:1;stroke-linecap:round;stroke-dasharray:none;stroke-opacity:1"
     d="M 15.412364,30.267117 V 26.764101"
     id="path2926" /><path
     style="fill:none;fill-opacity:1;stroke:#000000;stroke-width:1;stroke-linecap:round;stroke-dasharray:none;stroke-opacity:1"
     d="M 33.940711,30.267117 V 26.764101"
     id="path2928" /></g>
	<path
   class="st3"
   d="M 28.8,9.5 H 19.1 C 10.1,9.5 2.8,16.2 2.8,25.2 2.8,35.2 11,44 21,44 h 6 c 10,0 18.2,-8.8 18.2,-18.8 0,-9 -7.3,-15.7 -16.4,-15.7 z"
   id="path27"
   style="display:inline" />
	<path
   id="XMLID_13259_"
   class="st58"
   d="m 24.2,15.9 c 3.4,0.8 6.8,2.7 8.6,3.8 0.6,0.4 1.3,-0.1 1.2,-0.8 -0.3,-1.6 -1,-4 -2.9,-5.6 -0.4,-0.3 -0.4,-1 0.1,-1.2 C 32.4,11.4 34,11 35.3,10.7 36,10.6 36.2,9.6 35.5,9.2 34,8.4 31.8,7.6 29.5,8 c -2.7,0.4 -4.2,1.6 -4.9,2.4 -0.3,0.3 -0.8,0.3 -1.2,0 -0.7,-0.8 -2.2,-2 -4.9,-2.4 -2.4,-0.3 -4.6,0.5 -6,1.2 -0.7,0.3 -0.5,1.3 0.2,1.5 1.3,0.3 3,0.7 4.1,1.4 0.5,0.3 0.5,0.9 0.1,1.2 -1.9,1.6 -2.7,4 -2.9,5.6 -0.1,0.7 0.6,1.2 1.2,0.8 1.8,-1.1 5.2,-3 8.6,-3.8 0.1,0 0.3,0 0.4,0 z"
   style="display:inline;fill:#61c91d;fill-opacity:1" />
	<g
   id="XMLID_13257_"
   style="display:inline">
		<path
   id="XMLID_13258_"
   class="st67"
   d="m 12.7,10.7 c 0.4,0.1 0.8,0.2 1.2,0.3 1.3,-0.5 2.9,-0.8 4.6,-0.6 2.7,0.4 4.2,1.6 4.9,2.4 0.3,0.3 0.8,0.3 1.2,0 0.7,-0.8 2.2,-2 4.9,-2.4 1.7,-0.2 3.3,0.1 4.6,0.6 0.4,-0.1 0.8,-0.2 1.2,-0.3 C 36,10.6 36.2,9.6 35.5,9.2 34,8.4 31.8,7.6 29.5,8 c -2.7,0.4 -4.2,1.6 -4.9,2.4 -0.3,0.3 -0.8,0.3 -1.2,0 -0.7,-0.8 -2.2,-2 -4.9,-2.4 -2.4,-0.3 -4.6,0.5 -6,1.2 -0.7,0.4 -0.5,1.4 0.2,1.5 z"
   style="display:inline" />
	</g>
	<path
   id="XMLID_13256_"
   class="st3"
   d="m 24.2,15.9 c 3.4,0.8 6.8,2.7 8.6,3.8 0.6,0.4 1.3,-0.1 1.2,-0.8 -0.3,-1.6 -1,-4 -2.9,-5.6 -0.4,-0.3 -0.4,-1 0.1,-1.2 C 32.4,11.4 34,11 35.3,10.7 36,10.6 36.2,9.6 35.5,9.2 34,8.4 31.8,7.6 29.5,8 c -2.7,0.4 -4.2,1.6 -4.9,2.4 -0.3,0.3 -0.8,0.3 -1.2,0 -0.7,-0.8 -2.2,-2 -4.9,-2.4 -2.4,-0.3 -4.6,0.5 -6,1.2 -0.7,0.3 -0.5,1.3 0.2,1.5 1.3,0.3 3,0.7 4.1,1.4 0.5,0.3 0.5,0.9 0.1,1.2 -1.9,1.6 -2.7,4 -2.9,5.6 -0.1,0.7 0.6,1.2 1.2,0.8 1.8,-1.1 5.2,-3 8.6,-3.8 0.1,0 0.3,0 0.4,0 z"
   style="display:inline" />
	<path
   id="XMLID_13255_"
   class="st42"
   d="m 22.4,13.1 c 0,0 -0.3,-3.9 2.4,-6.7 0.3,-0.3 0.6,-0.4 1,-0.4 0.4,0 0.7,0.1 1,0.2 0.7,0.3 0.8,1.1 0.4,1.7 -1.3,1.8 -2.1,5.3 -2.1,5.3"
   style="display:inline" />
</g>
</svg>
